<?xml version="1.0" encoding="UTF-8" standalone="no"?>
<!DOCTYPE svg PUBLIC "-//W3C//DTD SVG 1.1//EN" "http://www.w3.org/Graphics/SVG/1.1/DTD/svg11.dtd">
<svg width="100%" height="100%" viewBox="0 0 58 26" version="1.1" xmlns="http://www.w3.org/2000/svg" xmlns:xlink="http://www.w3.org/1999/xlink" xml:space="preserve" xmlns:serif="http://www.serif.com/" style="fill-rule:evenodd;clip-rule:evenodd;stroke-linejoin:round;stroke-miterlimit:2;">
    <g id="形状" transform="matrix(1,0,0,1,-4,-4)">
        <path d="M48.396,12.065C48.546,12.09 49.725,11.827 49.775,11.914C49.85,12.027 50.376,15.812 50.239,15.837C50.101,15.863 49.123,16.088 49.123,16.088C49.048,15.574 48.409,12.391 48.396,12.065M50.276,11.701L50.79,15.775C51.053,15.762 52.119,15.687 52.219,15.675C52.069,14.133 51.805,11.701 51.805,11.701C51.304,11.601 50.778,11.601 50.276,11.701M49.261,17.354C49.261,17.354 51.58,16.765 52.419,17.053C52.846,18.595 53.623,27.244 53.698,27.595C53.172,27.657 51.442,27.808 51.304,27.845C51.191,27.193 49.261,17.768 49.261,17.354M57.847,12.165C57.985,12.203 59.213,12.04 59.226,12.127C59.251,12.428 59.376,16.063 59.238,16.076C59.1,16.088 58.123,16.176 58.123,16.176C58.097,15.675 57.822,12.503 57.847,12.165M59.739,12.065L59.84,16.088C60.103,16.088 61.156,16.151 61.269,16.138C61.244,14.597 61.269,12.165 61.269,12.165C60.767,12.077 60.253,12.04 59.739,12.065M58.123,17.467C58.123,17.467 60.491,17.154 61.294,17.53C61.469,19.335 61.444,27.745 61.469,28.096C60.93,28.096 59.213,28.121 59.075,28.146C59.05,27.494 58.085,17.881 58.123,17.467M52.62,7.126C53.986,14.095 55.027,26.003 55.064,26.767C55.064,26.767 56.142,26.792 57.358,26.868C56.644,19.36 55.766,7.364 55.779,6.976C55.478,6.637 52.62,7.126 52.62,7.126M49.612,23.609C49.349,21.653 42.355,19.435 38.419,20.149C38.419,20.149 37.93,15.837 37.742,11.664C37.579,8.079 37.717,4.594 37.755,4.018C37.491,3.83 34.659,5.183 33.129,5.747C33.129,5.747 34.959,13.494 36.288,29.562C36.288,29.562 38.406,29.788 42.041,29.086C45.676,28.384 49.975,26.191 49.612,23.609M41.064,27.131L40.449,22.706C40.6,22.631 44.373,24.035 44.774,24.286C44.711,24.561 41.064,27.131 41.064,27.131M19.267,12.065C19.417,12.09 20.595,11.827 20.645,11.914C20.721,12.027 21.247,15.812 21.109,15.837C20.971,15.863 19.994,16.088 19.994,16.088C19.918,15.574 19.279,12.391 19.267,12.065M21.147,11.701L21.661,15.775C21.924,15.762 22.989,15.687 23.09,15.675C22.927,14.133 22.676,11.701 22.676,11.701C22.175,11.601 21.648,11.601 21.147,11.701M20.131,17.354C20.131,17.354 22.45,16.765 23.29,17.053C23.716,18.595 24.493,27.244 24.569,27.595C24.042,27.657 22.312,27.808 22.175,27.845C22.062,27.193 20.131,17.768 20.131,17.354M28.717,12.165C28.855,12.203 30.084,12.04 30.096,12.127C30.121,12.428 30.247,16.063 30.109,16.076C29.971,16.088 28.993,16.176 28.993,16.176C28.968,15.675 28.705,12.503 28.717,12.165M30.61,12.065L30.71,16.088C30.974,16.088 32.026,16.151 32.139,16.138C32.114,14.597 32.139,12.165 32.139,12.165C31.638,12.077 31.124,12.052 30.61,12.065M28.993,17.467C28.993,17.467 31.362,17.154 32.164,17.53C32.34,19.335 32.315,27.745 32.34,28.096C31.801,28.096 30.084,28.121 29.946,28.146C29.933,27.494 28.956,17.881 28.993,17.467M23.491,7.126C24.857,14.095 25.897,26.003 25.935,26.767C25.935,26.767 27.013,26.792 28.229,26.868C27.514,19.36 26.637,7.364 26.649,6.963C26.348,6.637 23.491,7.126 23.491,7.126M20.482,23.609C20.219,21.653 13.225,19.435 9.289,20.149C9.289,20.149 8.801,15.837 8.613,11.664C8.45,8.079 8.588,4.594 8.625,4.018C8.362,3.842 5.529,5.183 4,5.747C4,5.747 5.83,13.494 7.159,29.562C7.159,29.562 9.277,29.788 12.912,29.086C16.547,28.384 20.846,26.191 20.482,23.609M11.934,27.131L11.32,22.706C11.47,22.631 15.243,24.035 15.644,24.286C15.582,24.561 11.934,27.131 11.934,27.131" style="fill:white;fill-rule:nonzero;"/>
    </g>
</svg>
