<?xml version="1.0" encoding="UTF-8" standalone="no"?>
<!DOCTYPE svg PUBLIC "-//W3C//DTD SVG 1.1//EN" "http://www.w3.org/Graphics/SVG/1.1/DTD/svg11.dtd">
<svg width="100%" height="100%" viewBox="0 0 30 25" version="1.1" xmlns="http://www.w3.org/2000/svg" xmlns:xlink="http://www.w3.org/1999/xlink" xml:space="preserve" xmlns:serif="http://www.serif.com/" style="fill-rule:evenodd;clip-rule:evenodd;stroke-linejoin:round;stroke-miterlimit:2;">
    <g transform="matrix(1,0,0,1,-0.120956,-0.183594)">
        <path d="M26.849,6.286C26.867,6.552 26.867,6.817 26.867,7.086C26.867,15.264 20.722,24.695 9.485,24.695L9.485,24.69C6.166,24.695 2.915,23.732 0.121,21.916C0.604,21.974 1.089,22.004 1.575,22.005C4.326,22.007 6.998,21.072 9.162,19.351C6.548,19.3 4.256,17.574 3.455,15.053C4.371,15.232 5.314,15.195 6.213,14.946C3.363,14.363 1.312,11.826 1.312,8.88L1.312,8.802C2.162,9.281 3.112,9.547 4.085,9.576C1.401,7.759 0.573,4.141 2.194,1.313C5.296,5.179 9.872,7.529 14.785,7.778C14.292,5.629 14.965,3.376 16.552,1.865C19.013,-0.478 22.882,-0.358 25.195,2.134C26.563,1.86 27.875,1.352 29.075,0.631C28.619,2.064 27.664,3.281 26.389,4.054C27.6,3.909 28.783,3.581 29.897,3.08C29.077,4.325 28.044,5.409 26.849,6.286Z" style="fill:white;fill-rule:nonzero;"/>
    </g>
</svg>
