<?xml version="1.0" encoding="UTF-8" standalone="no"?>
<!DOCTYPE svg PUBLIC "-//W3C//DTD SVG 1.1//EN" "http://www.w3.org/Graphics/SVG/1.1/DTD/svg11.dtd">
<svg width="100%" height="100%" viewBox="0 0 44 25" version="1.1" xmlns="http://www.w3.org/2000/svg" xmlns:xlink="http://www.w3.org/1999/xlink" xml:space="preserve" xmlns:serif="http://www.serif.com/" style="fill-rule:evenodd;clip-rule:evenodd;stroke-linejoin:round;stroke-miterlimit:2;">
    <path d="M42.274,1.098L35.133,1.098C34.842,1.098 34.556,1.177 34.306,1.327C34.056,1.477 33.851,1.692 33.713,1.949C33.713,1.949 30.865,7.201 29.951,8.97C27.49,13.728 25.896,12.234 25.896,10.026L25.896,2.411C25.896,1.775 25.644,1.165 25.195,0.715C24.745,0.265 24.136,0.012 23.5,0.012L18.132,0.012C17.401,-0.043 16.668,0.091 16.003,0.4C15.338,0.709 14.763,1.183 14.333,1.777C14.333,1.777 17.059,1.336 17.059,5.014C17.059,5.926 17.105,8.55 17.148,10.75C17.156,11.075 17.065,11.394 16.886,11.664C16.707,11.935 16.45,12.144 16.149,12.263C15.848,12.383 15.517,12.407 15.202,12.332C14.887,12.258 14.602,12.088 14.386,11.846C12.189,8.786 10.368,5.471 8.965,1.974C8.844,1.712 8.651,1.49 8.409,1.335C8.167,1.18 7.885,1.098 7.597,1.098L1.11,1.098C0.931,1.097 0.755,1.139 0.597,1.221C0.438,1.303 0.302,1.422 0.199,1.569C0.097,1.715 0.032,1.884 0.009,2.061C-0.014,2.239 0.007,2.419 0.069,2.586C2.039,7.997 10.524,25 20.209,25L24.286,25C24.713,25 25.123,24.83 25.425,24.528C25.727,24.225 25.896,23.815 25.896,23.387L25.896,20.922C25.896,20.613 25.987,20.311 26.156,20.052C26.326,19.794 26.567,19.591 26.851,19.468C27.134,19.345 27.447,19.308 27.751,19.361C28.055,19.415 28.337,19.556 28.563,19.767L33.442,24.358C33.88,24.77 34.459,25 35.06,25L41.467,25C44.558,25 44.558,22.853 42.873,21.191C41.687,20.022 37.408,15.505 37.408,15.505C37.042,15.125 36.823,14.627 36.792,14.099C36.761,13.572 36.919,13.051 37.238,12.63C38.621,10.807 40.883,7.824 41.843,6.546C43.154,4.799 45.527,1.098 42.274,1.098Z" style="fill:white;fill-rule:nonzero;"/>
</svg>
