<?xml version="1.0" encoding="UTF-8" standalone="no"?>
<!DOCTYPE svg PUBLIC "-//W3C//DTD SVG 1.1//EN" "http://www.w3.org/Graphics/SVG/1.1/DTD/svg11.dtd">
<svg width="100%" height="100%" viewBox="0 0 26 26" version="1.1" xmlns="http://www.w3.org/2000/svg" xmlns:xlink="http://www.w3.org/1999/xlink" xml:space="preserve" xmlns:serif="http://www.serif.com/" style="fill-rule:evenodd;clip-rule:evenodd;stroke-linejoin:round;stroke-miterlimit:2;">
    <path d="M12.506,6.09C8.958,6.09 6.096,8.952 6.096,12.5C6.096,16.048 8.958,18.91 12.506,18.91C16.054,18.91 18.915,16.048 18.915,12.5C18.915,8.952 16.054,6.09 12.506,6.09ZM12.506,16.667C10.213,16.667 8.338,14.798 8.338,12.5C8.338,10.202 10.207,8.333 12.506,8.333C14.804,8.333 16.673,10.202 16.673,12.5C16.673,14.798 14.798,16.667 12.506,16.667ZM20.673,5.828C20.673,6.659 20.003,7.323 19.177,7.323C18.346,7.323 17.683,6.654 17.683,5.828C17.683,5.003 18.352,4.333 19.177,4.333C20.003,4.333 20.673,5.002 20.673,5.828ZM24.918,7.345C24.823,5.343 24.366,3.569 22.898,2.107C21.437,0.646 19.663,0.188 17.66,0.088C15.596,-0.029 9.41,-0.029 7.346,0.088C5.348,0.183 3.574,0.64 2.107,2.102C0.64,3.563 0.188,5.337 0.088,7.34C-0.029,9.404 -0.029,15.591 0.088,17.655C0.183,19.657 0.64,21.431 2.107,22.893C3.574,24.354 5.343,24.812 7.346,24.912C9.41,25.029 15.596,25.029 17.66,24.912C19.663,24.817 21.437,24.36 22.898,22.893C24.36,21.431 24.817,19.657 24.918,17.655C25.035,15.591 25.035,9.409 24.918,7.345ZM22.251,19.869C21.816,20.963 20.974,21.805 19.875,22.246C18.229,22.898 14.324,22.748 12.506,22.748C10.687,22.748 6.776,22.893 5.136,22.246C4.043,21.811 3.201,20.968 2.76,19.869C2.107,18.224 2.258,14.319 2.258,12.5C2.258,10.681 2.113,6.771 2.76,5.131C3.195,4.037 4.037,3.195 5.136,2.754C6.782,2.102 10.687,2.252 12.506,2.252C14.324,2.252 18.235,2.107 19.875,2.754C20.968,3.189 21.811,4.032 22.251,5.131C22.904,6.776 22.753,10.681 22.753,12.5C22.753,14.319 22.904,18.229 22.251,19.869Z" style="fill:white;fill-rule:nonzero;"/>
</svg>
