<?xml version="1.0" encoding="UTF-8" standalone="no"?>
<!DOCTYPE svg PUBLIC "-//W3C//DTD SVG 1.1//EN" "http://www.w3.org/Graphics/SVG/1.1/DTD/svg11.dtd">
<svg width="100%" height="100%" viewBox="0 0 32 26" version="1.1" xmlns="http://www.w3.org/2000/svg" xmlns:xlink="http://www.w3.org/1999/xlink" xml:space="preserve" xmlns:serif="http://www.serif.com/" style="fill-rule:evenodd;clip-rule:evenodd;stroke-linejoin:round;stroke-miterlimit:2;">
    <g transform="matrix(1,0,0,1,0,0.000976606)">
        <path d="M13.025,23.169C7.892,23.676 3.461,21.364 3.127,18.012C2.793,14.657 6.686,11.531 11.815,11.025C16.948,10.518 21.38,12.83 21.709,16.181C22.047,19.537 18.154,22.667 13.025,23.169ZM23.287,12.034C22.851,11.902 22.552,11.817 22.778,11.246C23.275,10.007 23.326,8.938 22.787,8.172C21.782,6.741 19.027,6.818 15.87,8.133C15.87,8.133 14.878,8.563 15.134,7.784C15.618,6.23 15.545,4.931 14.792,4.177C13.081,2.47 8.525,4.241 4.62,8.129C1.698,11.037 0,14.125 0,16.795C0,21.896 6.575,25 13.004,25C21.435,25 27.043,20.125 27.043,16.254C27.048,13.912 25.067,12.583 23.287,12.034Z" style="fill:white;fill-rule:nonzero;"/>
        <path d="M28.887,2.695C26.851,0.447 23.848,-0.409 21.076,0.179C20.434,0.315 20.028,0.945 20.165,1.58C20.302,2.219 20.93,2.623 21.572,2.487C23.544,2.07 25.679,2.678 27.125,4.275C28.57,5.872 28.964,8.048 28.344,9.956C28.142,10.577 28.485,11.242 29.109,11.442C29.734,11.642 30.401,11.301 30.602,10.684L30.602,10.68C31.475,8.001 30.923,4.94 28.887,2.695Z" style="fill:white;fill-rule:nonzero;"/>
        <path d="M25.76,5.506C24.767,4.412 23.305,3.994 21.957,4.284C21.405,4.399 21.055,4.944 21.17,5.493C21.29,6.042 21.833,6.392 22.381,6.272C23.039,6.132 23.758,6.336 24.241,6.869C24.725,7.405 24.857,8.133 24.648,8.772C24.477,9.304 24.767,9.879 25.307,10.054C25.845,10.224 26.419,9.934 26.594,9.398C27.017,8.091 26.752,6.6 25.76,5.506Z" style="fill:white;fill-rule:nonzero;"/>
        <path d="M13.308,17.097C13.128,17.403 12.73,17.548 12.422,17.421C12.114,17.297 12.02,16.952 12.195,16.654C12.375,16.356 12.756,16.211 13.06,16.33C13.368,16.441 13.479,16.786 13.308,17.097ZM11.669,19.183C11.173,19.971 10.108,20.316 9.308,19.954C8.521,19.596 8.286,18.681 8.782,17.91C9.274,17.144 10.301,16.803 11.096,17.135C11.9,17.48 12.157,18.387 11.669,19.183ZM13.534,13.605C11.092,12.971 8.333,14.184 7.272,16.326C6.19,18.511 7.238,20.938 9.702,21.73C12.26,22.552 15.271,21.291 16.319,18.936C17.354,16.629 16.063,14.257 13.534,13.605Z" style="fill:white;fill-rule:nonzero;"/>
    </g>
</svg>
