<?xml version="1.0" encoding="UTF-8" standalone="no"?>
<!DOCTYPE svg PUBLIC "-//W3C//DTD SVG 1.1//EN" "http://www.w3.org/Graphics/SVG/1.1/DTD/svg11.dtd">
<svg width="100%" height="100%" viewBox="0 0 32 23" version="1.1" xmlns="http://www.w3.org/2000/svg" xmlns:xlink="http://www.w3.org/1999/xlink" xml:space="preserve" xmlns:serif="http://www.serif.com/" style="fill-rule:evenodd;clip-rule:evenodd;stroke-linejoin:round;stroke-miterlimit:2;">
    <g transform="matrix(1,0,0,1,0,-4.8)">
        <path d="M31.3,8.3C30.9,7 29.9,5.9 28.5,5.5C26,4.8 16,4.8 16,4.8C16,4.8 6,4.8 3.5,5.5C2.1,5.9 1.1,6.9 0.7,8.3C0.2,10.8 0,13.4 0,16C0,18.6 0.2,21.2 0.7,23.7C1.1,25 2.1,26.1 3.5,26.5C6,27.2 16,27.2 16,27.2C16,27.2 26,27.2 28.5,26.5C29.9,26.1 30.9,25.1 31.3,23.7C31.8,21.2 32,18.6 32,16C32,13.4 31.8,10.8 31.3,8.3ZM12.8,20.8L12.8,11.2L21.1,16L12.8,20.8Z" style="fill:white;fill-rule:nonzero;"/>
    </g>
</svg>
