<?xml version="1.0" encoding="UTF-8" standalone="no"?>
<!DOCTYPE svg PUBLIC "-//W3C//DTD SVG 1.1//EN" "http://www.w3.org/Graphics/SVG/1.1/DTD/svg11.dtd">
<svg width="100%" height="100%" viewBox="0 0 25 25" version="1.1" xmlns="http://www.w3.org/2000/svg" xmlns:xlink="http://www.w3.org/1999/xlink" xml:space="preserve" xmlns:serif="http://www.serif.com/" style="fill-rule:evenodd;clip-rule:evenodd;stroke-linejoin:round;stroke-miterlimit:2;">
    <path d="M22.738,0L2.261,0C1.012,0 0,1.012 0,2.261L0,22.738C0,23.988 1.012,25 2.261,25L22.738,25C23.988,25 25,23.988 25,22.738L25,2.261C25,1.012 23.988,0 22.738,0ZM7.736,21.587C7.736,21.95 7.441,22.245 7.078,22.245L4.277,22.245C3.913,22.245 3.618,21.95 3.618,21.587L3.618,9.843C3.618,9.48 3.913,9.185 4.277,9.185L7.078,9.185C7.441,9.185 7.736,9.48 7.736,9.843L7.736,21.587ZM5.677,8.078C4.207,8.078 3.016,6.886 3.016,5.417C3.016,3.947 4.207,2.755 5.677,2.755C7.147,2.755 8.339,3.947 8.339,5.417C8.339,6.886 7.147,8.078 5.677,8.078ZM22.376,21.64C22.376,21.974 22.105,22.245 21.771,22.245L18.765,22.245C18.431,22.245 18.16,21.974 18.16,21.64L18.16,16.131C18.16,15.31 18.401,12.53 16.012,12.53C14.16,12.53 13.784,14.433 13.709,15.286L13.709,21.64C13.709,21.974 13.438,22.245 13.104,22.245L10.196,22.245C9.862,22.245 9.591,21.974 9.591,21.64L9.591,9.79C9.591,9.456 9.862,9.185 10.196,9.185L13.104,9.185C13.438,9.185 13.709,9.456 13.709,9.79L13.709,10.815C14.396,9.784 15.416,8.988 17.59,8.988C22.404,8.988 22.376,13.485 22.376,15.956L22.376,21.64Z" style="fill:white;fill-rule:nonzero;"/>
</svg>
